<svg xmlns="http://www.w3.org/2000/svg" viewBox="0 0 514 514"><defs><style>.cls-1,.cls-2,.cls-3{fill:red;}.cls-2{stroke:red;}.cls-2,.cls-3{stroke-miterlimit:10;}.cls-3{stroke:#000;stroke-width:0.25px;}</style></defs><g id="circle-background"><circle cx="257" cy="257" r="257"/></g><g id="shapes"><path class="cls-1" d="M445.69,262.5c4.46,66.4-43.24,123.22-69.09,145.24-3.63,1.4-7.28,2.73-11,3.78-7.79,2.17-17.78,4.21-23.71-2.74,0-.17-.05-.34-.08-.5-1.36-6.49-6.51-10.59-12.32-13.14-5.33-2.33-12.93-5.59-18.83-4.34a12.7,12.7,0,0,0-9.4,8.33C220.1,373.14,85.88,322.29,84,262.5,76.84,29.94,430.34,34.05,445.69,262.5Z"/><path class="cls-1" d="M322,402.77c.86.26,1.7.56,2.53.89C323.62,403.38,322.79,403.09,322,402.77Z"/><path class="cls-1" d="M296.22,398a19.51,19.51,0,0,0-.28-7.87l-.2,7.68A327.68,327.68,0,0,0,262,386.45l33.71,11.36-.07,2.49a18.32,18.32,0,0,0,.54-2.33l.5.17Z"/><path class="cls-1" d="M238.48,379a144.64,144.64,0,0,0-40.1-22.13c-3.4-1.23-6.87-2.33-10.34-3.43l50.22,25.76a9.7,9.7,0,0,0-2.91,6.7c0,2.13,1.54,4.76,3.56,4.1,1.34-.44,1.83-2,2.6-3.21a7.88,7.88,0,0,1,6.1-3.22,22.31,22.31,0,0,1,7,1c2.46.61,4.92,1.27,7.37,1.94l-23.18-7.81Z"/><path class="cls-1" d="M158.91,340.93c8.72,6.07,18.94,9.26,29.13,12.49L149,333.37C152.34,335.76,155.52,338.57,158.91,340.93Z"/><path class="cls-1" d="M149,333.37a29.73,29.73,0,0,0-8.82-4.52Z"/><path class="cls-1" d="M231.22,377.8c-2.31-1.19-5-1.05-7.63-1.05A66.59,66.59,0,0,1,209,375l-2.43-1.6,11.81.4-28.62-11.53L140,329.33c2,7.18-3.11,14.92-9.93,17.93s-14.74,2.19-21.9.16c-4.11-1.17-8.94-2.6-12.31,0-2,1.57-2.87,4.2-3.54,6.67A135,135,0,0,0,89.23,369a11.6,11.6,0,0,1-1.59,5.12c-1.63,2.29-4.63,3-7.23,4s-5.32,3.28-4.9,6l34.16,3.49c12,1.23,24.57,2.63,34.66,9.28a30.29,30.29,0,0,0,5.57,3.33,19.79,19.79,0,0,0,7.19.94c10.65,0,21.23-1.52,31.77-3a100,100,0,0,0,15.38-3l.21-.07a157.43,157.43,0,0,0,19.34-6.28,23.29,23.29,0,0,1,6-.19l-2-1.34,2.57-1a6.73,6.73,0,0,0,3.27-2.1C235.06,382.13,233.52,379,231.22,377.8Z"/><path class="cls-1" d="M160.87,345.65c6.27,6.48,14.72,8.87,23.1,11.42,10.7,3.27,19.11,9.12,27.73,16.12l4.54-5.89a264.31,264.31,0,0,0-37-15.51c-4.59-1.52-6.56,5.72-2,7.23a251.66,251.66,0,0,1,35.19,14.76c3.56,1.82,8-3.06,4.54-5.89-7.85-6.38-15.77-12.61-25.36-16.17-8.72-3.24-18.72-4.39-25.47-11.37-3.36-3.48-8.66,1.83-5.3,5.3Z"/><path class="cls-1" d="M203,378.38c8.75,2.62,17.8,2.49,26.83,2.16s18.71-.89,27.19,3.11c5.79,2.73,10.87-5.89,5-8.64-18.14-8.55-37.83-.71-56.41-6.27-6.18-1.85-8.82,7.79-2.66,9.64Z"/><path class="cls-1" d="M214.8,371.72l.45.88a3.86,3.86,0,0,0,1.29,1.4,4.47,4.47,0,0,0,3.69,1,3.66,3.66,0,0,0,1.86-.6l1-.78a5,5,0,0,0,1.29-2.2l.18-1.33a5,5,0,0,0-.68-2.53l-.45-.88a3.86,3.86,0,0,0-1.29-1.4,3.69,3.69,0,0,0-1.7-.9,5.64,5.64,0,0,0-3.86.5l-1,.79a4.91,4.91,0,0,0-1.28,2.2l-.18,1.33a5,5,0,0,0,.68,2.53Z"/><path class="cls-1" d="M222.76,388.45c6.79,1.44,14.83,4.35,20.92-.47,1.73-1.37,2.37-2.3,4.69-2.58a26.07,26.07,0,0,1,4.75.28l14.47,1.16c6.42.51,6.38-9.49,0-10-7.22-.58-16.29-2.82-23.43-.94-3.19.84-4.89,3.9-7.77,4.78s-8-1.26-11-1.88c-6.27-1.33-9,8.31-2.66,9.65Z"/><ellipse class="cls-1" cx="232.76" cy="380.82" rx="47.02" ry="9.5" transform="translate(-51.31 36.57) rotate(-8.09)"/><path class="cls-2" d="M363,411c-2.29,9.11-55.15-7.74-70.14-11.51s-25.3-14.21-23-23.32,16.31-13.43,31.3-9.66S365.29,401.89,363,411Z"/><path class="cls-1" d="M86.91,281a24.82,24.82,0,0,0-10.26,9.94c-2.64,4.88-3,10.48-5.52,15.4s-3.89,10.5-5.42,15.92c-1.3,4.61-3.16,10,1.89,13.09,6,3.64,21.77,6.14,21.77-4.8,0-3-1.49-5.19-1-8.26.4-2.83,1.21-5.39.59-8.28a9.71,9.71,0,0,0-9.6-8.06,5.05,5.05,0,0,0-5,5q.11,6.69.09,13.37c0,6.44,10,6.45,10,0q0-6.69-.09-13.37l-5,5c-.12,0-1.17,6.43-1.25,7.43a13.93,13.93,0,0,0,.09,3.76,6.45,6.45,0,0,0,.61,2.16c.24,1.07.69.85,1.36-.66-.23-.29-4.14-1-4.6-1.09-.89-.25-4.76-2.05-2.19.35.73,1.81,1.16,1.67,1.29-.44l.48-1.7,1.44-5.09c1.69-6,4.92-11.22,6.54-17.16,1.66-6.1,2.89-10.69,8.86-13.87,5.68-3,.64-11.67-5-8.64Z"/><path class="cls-1" d="M108.12,348.64a8.39,8.39,0,0,1-2.9-5.46L98.89,348c10,2.82,22.17,5.46,32.63,3.84s11.38-13.63,13.33-22L136.5,332a132.12,132.12,0,0,0,21,16.11c5.5,3.39,10.52-5.26,5.05-8.63a118.88,118.88,0,0,1-19-14.55c-2.63-2.47-7.48-1.59-8.36,2.21-.84,3.64-1.52,7.39-2.56,11-1.26,4.32-3.23,4-7.52,3.93a95.61,95.61,0,0,1-23.58-3.71c-2.88-.81-6.65,1.55-6.33,4.82a19,19,0,0,0,5.83,12.53c4.64,4.47,11.72-2.59,7.07-7.07Z"/><path class="cls-1" d="M84.25,332.09a55.71,55.71,0,0,0,11,12.08c2.1,1.7,5,2.05,7.07,0,1.75-1.75,2.11-5.37,0-7.07A46.94,46.94,0,0,1,92.89,327a5.12,5.12,0,0,0-6.84-1.79c-2.21,1.29-3.33,4.6-1.8,6.84Z"/><path class="cls-3" d="M191.5,386c-5.67,0-10.29,7.29-10.48,16.4-1.34-6.9-5.32-11.9-10-11.9-3.83,0-7.16,3.32-9,8.28-1.84-5-5.17-8.28-9-8.28a7,7,0,0,0-3.55,1c-1.9-3.1-4.54-5-7.45-5-2.68,0-5.12,1.64-7,4.33-1.83-5-5.18-8.33-9-8.33-2.51,0-4.81,1.43-6.61,3.8-1.92-4.12-5-6.8-8.39-6.8-3.64,0-6.84,3-8.73,7.55-1.92-4-4.91-6.55-8.27-6.55-2.83,0-5.39,1.82-7.28,4.76A7.91,7.91,0,0,0,81,382.5c-5.8,0-10.5,7.61-10.5,17s4.7,17,10.5,17c2.83,0,5.39-1.82,7.28-4.76A7.91,7.91,0,0,0,94,414.5c3.64,0,6.84-3,8.73-7.55,1.92,4,4.91,6.55,8.27,6.55,2.51,0,4.81-1.43,6.61-3.8,1.92,4.12,5,6.8,8.39,6.8,2.68,0,5.12-1.64,7-4.33,1.83,5,5.18,8.33,9,8.33a7,7,0,0,0,3.55-1c1.9,3.1,4.54,5,7.45,5,3.83,0,7.16-3.32,9-8.28,1.84,5,5.17,8.28,9,8.28,5.67,0,10.29-7.29,10.48-16.4,1.34,6.9,5.32,11.9,10,11.9,5.8,0,10.5-7.61,10.5-17S197.3,386,191.5,386Z"/><rect class="cls-1" x="71" y="324" width="8" height="7"/></g><g id="Layer_4" data-name="Layer 4"><path d="M111.5,344.5c21.87,4.8,37-8.63,13-29-18-15.24-19.48-33.49-21.5-35-16.29-12.16-24.79,8-21.5,35C84.11,336.84,91.23,340.05,111.5,344.5Z"/><path d="M179.5,314.5c21.68,6.55,41-18.36,41-41,0-12.78-22.5-30.5-22.5-30.5s-7.43-10.69-18.5-10.5c-21.45.38-42.53,19.45-41,41C139.76,291.25,164.89,310.09,179.5,314.5Z"/><path d="M96.5,268.5c7.18,0,2-6,13-21s-5.82-21-13-21-13,9.4-13,21S89.32,268.5,96.5,268.5Z"/></g></svg>